<?xml version="1.0" encoding="utf-8"?>
<!-- Uploaded to: SVG Repo, www.svgrepo.com, Generator: SVG Repo Mixer Tools -->
<!DOCTYPE svg PUBLIC "-//W3C//DTD SVG 1.1//EN" "http://www.w3.org/Graphics/SVG/1.1/DTD/svg11.dtd">
<svg fill="#000000" version="1.1" id="Layer_1" xmlns="http://www.w3.org/2000/svg" xmlns:xlink="http://www.w3.org/1999/xlink" 
	 width="800px" height="800px" viewBox="0 0 512 512" enable-background="new 0 0 512 512" xml:space="preserve">
<g>
	<path d="M428.309,373.056c-12.003,10.971-25.972,21.091-42.254,29.843c-9.227,4.934-19.642,7.554-30.139,7.554H102.855
		c-10.528,0-20.96-2.62-30.164-7.57c-16.271-8.745-30.23-18.859-42.228-29.821c-13.243,8.236-20.856,17.393-20.856,27.088
		c0,35.356,98.4,64.015,219.783,64.015s219.782-28.658,219.782-64.015C449.173,390.453,441.557,381.296,428.309,373.056z"/>
	<path d="M84.45,380.999c5.686,3.058,11.953,4.611,18.405,4.611h253.061c6.412,0,12.761-1.585,18.405-4.611
		c45.505-24.453,74.287-60.165,74.287-100.033c0-16.872-5.352-32.948-14.727-47.809c-9.704,38.986-35.499,82.481-54.505,101.473
		c-16.966,16.982-39.537,26.332-63.546,26.332c-23.985,0-46.539-9.333-63.514-26.298c-35.015-35.048-35.015-92.044,0.008-127.061
		c14.813-14.808,44.533-33.602,75.376-45.848c-29.596-9.073-62.918-14.301-98.309-14.301c-121.077,0-219.225,59.778-219.225,133.513
		C10.166,320.834,38.945,356.546,84.45,380.999z"/>
	<path d="M498.365,111.677c-4.165-4.155-9.591-6.178-15.033-6.178c-0.647,0-1.287,0.017-1.933,0.082
		c0.508-6.082-1.456-12.325-6.106-16.982c-4.18-4.174-9.655-6.275-15.129-6.275c-5.476,0-10.951,2.102-15.139,6.29
		c-7.036,7.037-8.071,17.711-3.268,25.911l-59.445,59.453c-0.033,0-0.073,0-0.115,0c-35.614,0-92.327,31.216-112.308,51.191
		c-25.376,25.376-25.376,66.537,0,91.93c12.68,12.681,29.314,19.021,45.94,19.021c16.643,0,33.278-6.356,45.974-19.053
		c19.998-19.975,51.245-76.792,51.189-112.423l59.447-59.438c3.355,1.974,7.123,2.961,10.893,2.961
		c5.442,0,10.868-2.055,15.024-6.227C506.719,133.576,506.702,120.039,498.365,111.677z"/>
</g>
</svg>